# xmcd
#
# Track frame offsets:
#	150
#	21702
#	50655
#	94611
#	118170
#	140679
#	158732
#	192911
#	219289
#	236377
#	273551
#	294248
#
# Disc length: 4282 seconds
#
# Revision: 0
# Processed by: cddbd v1.5.1PL0 Copyright (c) Steve Scherf et al.
# Submitted via: dBpowerAMP V4.0
#
DISCID=b110b80c
DTITLE=Geo Heathcote - The Best of Geo Heathcote's Black and Blue Notes 94 - 04
DYEAR=2004
DGENRE=Blues
TTITLE0=Als Room
TTITLE1=Hip to be out
TTITLE2=The City
TTITLE3=Wildside
TTITLE4=Straighten Up
TTITLE5=Biffadada
TTITLE6=Urban Sprawl
TTITLE7=As If
TTITLE8=Breakfast in 4562
TTITLE9=Pyote
TTITLE10=Ignorance
TTITLE11=Blown Off
EXTD=Live at the Hemp Hut, Eumundi Qld
EXTT0=
EXTT1=
EXTT2=
EXTT3=
EXTT4=
EXTT5=
EXTT6=
EXTT7=
EXTT8=
EXTT9=
EXTT10=
EXTT11=
PLAYORDER=
